Coordinates
version=1
nRows=11
nColumns=63
inDegrees=yes

Units are S.I. units (second, meters, Newtons, ...)
If the header above contains a line with 'inDegrees', this indicates whether rotational values are in degrees (yes) or radians (no).

endheader
time	pelvis_tilt	pelvis_list	pelvis_rotation	pelvis_tx	pelvis_ty	pelvis_tz	hip_flexion_r	hip_adduction_r	hip_rotation_r	knee_angle_r	knee_angle_r_beta	ankle_angle_r	subtalar_angle_r	mtp_angle_r	hip_flexion_l	hip_adduction_l	hip_rotation_l	knee_angle_l	knee_angle_l_beta	ankle_angle_l	subtalar_angle_l	mtp_angle_l	L5_S1_Flex_Ext	L5_S1_Lat_Bending	L5_S1_axial_rotation	L4_L5_Flex_Ext	L4_L5_Lat_Bending	L4_L5_axial_rotation	L3_L4_Flex_Ext	L3_L4_Lat_Bending	L3_L4_axial_rotation	L2_L3_Flex_Ext	L2_L3_Lat_Bending	L2_L3_axial_rotation	L1_L2_Flex_Ext	L1_L2_Lat_Bending	L1_L2_axial_rotation	L1_T12_Flex_Ext	L1_T12_Lat_Bending	L1_T12_axial_rotation	Abs_r3	Abs_r2	Abs_r1	Abs_t1	Abs_t2	neck_flexion	neck_bending	neck_rotation	arm_flex_r	arm_add_r	arm_rot_r	elbow_flex_r	pro_sup_r	wrist_flex_r	wrist_dev_r	arm_flex_l	arm_add_l	arm_rot_l	elbow_flex_l	pro_sup_l	wrist_flex_l	wrist_dev_l
      2.63333333	      1.25955520	     -8.04060635	     89.43226144	      0.23923678	      1.04608302	      0.35085219	     -5.12584265	     -1.34399288	     12.38524536	      9.93367869	      0.17337540	     27.76272194	    -10.01061413	      0.00000000	     -9.76892787	      0.92870933	      1.53201705	      1.13850523	      0.01987066	     30.36914695	     -3.49182552	      0.00000000	      0.12511817	      0.03654094	     -1.40500283	      0.23235696	      0.04859946	     -1.49281550	      0.20555665	      0.08884565	     -1.49281550	      0.14299756	      0.08884565	     -1.22937747	      0.11618474	      0.07451429	     -1.14156480	      0.07149252	      0.05660192	     -1.05375212	      0.89370660	      0.41335847	     -7.81420422	      0.00000000	      0.00000000	     28.25386930	     -4.22023897	     11.04586306	      9.71672793	    -15.15009713	     68.22599829	     49.56945086	     29.12798269	     13.33937490	     -2.05924240	     -1.22754101	    -16.44280608	     48.73701975	     49.96197475	     58.10676161	     -3.02741567	    -12.88055537
      2.65000000	      1.06975602	     -8.08793899	     89.54193213	      0.23879968	      1.04605287	      0.35001697	     -5.09782754	     -1.75792888	      9.61310527	      9.96542915	      0.17392955	     28.69772977	     -6.10985569	      0.00000000	     -9.79887087	      1.09308799	      0.08342905	      1.13249354	      0.01976574	     30.65608100	     -1.13817806	      0.00000000	      0.13745484	      0.01815654	     -1.43685947	      0.25526738	      0.02414820	     -1.52666318	      0.22582455	      0.04414581	     -1.52666318	      0.15709713	      0.04414581	     -1.25725203	      0.12764056	      0.03702481	     -1.16744832	      0.07854169	      0.02812448	     -1.07764460	      0.98182615	      0.20539040	     -7.99138129	      0.00000000	      0.00000000	     28.28217395	     -3.90066132	     11.28063737	      9.35290133	    -15.19271223	     67.25313178	     49.83664448	     30.85774418	     12.35246441	     -1.35970530	     -1.35812517	    -16.54396683	     48.52784840	     50.36090483	     56.61042654	     -2.92040790	    -10.71003760
      2.66666667	      1.03580552	     -8.31682541	     89.43782190	      0.23876647	      1.04604208	      0.34964960	     -4.83882562	     -1.61397653	     11.91075526	     10.09849371	      0.17625196	     27.92056629	     -9.42375352	      0.00000000	     -9.62199574	      1.16819770	      1.94791558	      1.05133480	      0.01834925	     30.12194853	     -3.56427208	      0.00000000	      0.16094867	      0.02463451	     -1.68157421	      0.29889778	      0.03276390	     -1.78667260	      0.26442257	      0.05989635	     -1.78667260	      0.18394824	      0.05989635	     -1.47137743	      0.14945694	      0.05023469	     -1.36627905	      0.09196607	      0.03815886	     -1.26118066	      1.14964026	      0.27867051	     -9.35241129	      0.00000000	      0.00000000	     28.29938117	     -1.90458006	     13.96461817	     11.36435986	    -14.95760383	     71.62145453	     48.99260911	     28.22206140	     13.94157008	     -1.75056480	     -2.29731732	    -16.12772261	     46.13778190	     49.60151018	     60.03454869	     -2.22162132	    -12.29013281
      2.68333333	      0.88258329	     -8.46775586	     89.58682626	      0.23840671	      1.04611836	      0.34884054	     -4.75251243	     -1.77548385	     11.64703885	     10.10477067	      0.17636152	     27.88023669	     -9.37214558	      0.00000000	     -9.50954507	      1.29535405	      2.11645867	      0.97283895	      0.01697924	     30.14624669	     -3.17398971	      0.00000000	      0.17829872	      0.01305564	     -1.88864357	      0.33111856	      0.01736400	     -2.00668379	      0.29292697	      0.03174348	     -2.00668379	      0.20377761	      0.03174348	     -1.65256312	      0.16556820	      0.02662306	     -1.53452290	      0.10187989	      0.02022318	     -1.41648268	      1.27356996	      0.14768798	    -10.50406893	      0.00000000	      0.00000000	     28.31210853	     -0.93517728	     15.44229684	     12.42572827	    -14.71239164	     73.80750897	     48.67866705	     27.35744125	     14.27958867	     -1.51092664	     -2.82037056	    -16.06166462	     44.83018115	     49.35943710	     61.30401349	     -1.23620043	    -12.26049183
      2.70000000	      0.74846205	     -8.65141269	     89.51275875	      0.23812078	      1.04613620	      0.34775360	     -4.63938719	     -1.95323224	     11.66502371	     10.07967786	      0.17592357	     27.69933798	     -9.32069276	      0.00000000	     -9.39749714	      1.44959838	      2.33268168	      0.84461391	      0.01474129	     30.25867257	     -3.07938038	      0.00000000	      0.20710427	      0.00311185	     -1.94225421	      0.38461334	      0.00413877	     -2.06364510	      0.34025161	      0.00756616	     -2.06364510	      0.23669947	      0.00756616	     -1.69947244	      0.19231703	      0.00634569	     -1.57808155	      0.11833938	      0.00482026	     -1.45669066	      1.47932511	      0.03520191	    -10.80223525	      0.00000000	      0.00000000	     28.31941364	     -0.77381978	     15.69584535	     12.69580561	    -14.69056774	     74.34047857	     48.69520259	     27.52693934	     14.37175628	     -1.15707390	     -2.78680593	    -16.13046352	     45.09656287	     49.13387089	     61.46906829	     -1.03023523	    -12.15504937
      2.71666667	      0.61961301	     -8.74987851	     90.19226861	      0.23729355	      1.04619859	      0.34691629	     -4.74262990	     -2.03356458	     11.05490864	      9.95462627	      0.17374100	     27.58057237	     -9.67161421	      0.00000000	     -9.27342648	      1.44947328	      3.02708348	      0.80327161	      0.01401973	     30.31822216	     -2.74074046	      0.00000000	      0.21520282	     -0.00649633	     -2.24943890	      0.39965315	     -0.00864012	     -2.39002884	      0.35355671	     -0.01579518	     -2.39002884	      0.24595530	     -0.01579518	     -1.96825904	      0.19983734	     -0.01324732	     -1.82766911	      0.12296689	     -0.01006281	     -1.68707918	      1.53717221	     -0.07348778	    -12.51070436	      0.00000000	      0.00000000	     28.32817178	      0.68978984	     17.76959952	     13.89157421	    -14.30088745	     76.90751884	     48.28946900	     26.41583577	     14.93323416	     -1.03225890	     -3.08799660	    -16.31699301	     44.40559592	     48.83732409	     62.26325005	      0.73680762	    -12.85452486
      2.73333333	      0.56090888	     -8.86146105	     90.30441865	      0.23693464	      1.04617322	      0.34603044	     -4.73799298	     -2.10494407	     11.05950068	      9.89554981	      0.17270993	     27.36694781	     -9.89997062	      0.00000000	     -9.18339868	      1.47613133	      2.41501199	      0.76905770	      0.01342259	     30.71550349	     -1.47790227	      0.00000000	      0.23664804	     -0.00955955	     -2.36355009	      0.43947908	     -0.01271420	     -2.51127197	      0.38878907	     -0.02324309	     -2.51127197	      0.27046505	     -0.02324309	     -2.06810633	      0.21975137	     -0.01949383	     -1.92038445	      0.13522069	     -0.01480774	     -1.77266257	      1.69035331	     -0.10813954	    -13.14535652	      0.00000000	      0.00000000	     28.33739574	      1.01112821	     18.21477656	     14.84640520	    -14.15562920	     79.44517288	     48.17048002	     24.49942558	     15.02400581	     -1.54498401	     -3.49801250	    -16.30695457	     43.15880139	     48.84679831	     64.09573433	      2.00297505	    -12.47955262
      2.75000000	      0.50821928	     -8.90013865	     90.74843716	      0.23618508	      1.04618914	      0.34542541	     -4.83285165	     -2.24575045	      9.46219326	      9.80873457	      0.17119471	     27.57083684	     -8.27478260	      0.00000000	     -9.14142470	      1.43611294	      1.96734701	      0.76526874	      0.01335646	     31.11516935	     -0.02027890	      0.00000000	      0.24771657	     -0.01505259	     -2.39344933	      0.46003445	     -0.02001994	     -2.54303991	      0.40697356	     -0.03659886	     -2.54303991	      0.28311527	     -0.03659886	     -2.09426816	      0.23002961	     -0.03069523	     -1.94467758	      0.14154525	     -0.02331645	     -1.79508700	      1.76941470	     -0.17027785	    -13.31164713	      0.00000000	      0.00000000	     28.34000459	      1.00624236	     18.10086831	     14.64001870	    -14.13590829	     79.00508421	     47.93378456	     25.27897885	     15.55446650	     -1.63674356	     -3.00883433	    -16.55811186	     44.08153447	     48.59192497	     63.99764458	      3.12489528	    -13.14594895
      2.76666667	      0.53897552	     -8.87634302	     90.96258718	      0.23581278	      1.04616112	      0.34515323	     -4.93739522	     -2.20607364	      9.40368596	      9.75469714	      0.17025158	     27.29449668	     -8.51439718	      0.00000000	     -9.18645015	      1.35189693	      1.99192531	      0.76708144	      0.01338810	     31.29635700	      0.43349668	      0.00000000	      0.25102798	     -0.01502903	     -2.32450239	      0.46618405	     -0.01998861	     -2.46978379	      0.41241386	     -0.03654158	     -2.46978379	      0.28689987	     -0.03654158	     -2.03393959	      0.23310458	     -0.03064720	     -1.88865819	      0.14343739	     -0.02327997	     -1.74337679	      1.79306772	     -0.17001139	    -12.92818495	      0.00000000	      0.00000000	     28.33945850	      0.77395490	     17.55331222	     14.16360074	    -14.25762721	     78.10800146	     47.91196660	     25.77624868	     15.59598829	     -2.10424893	     -2.45420730	    -16.78645910	     44.80132585	     48.51568288	     64.24890345	      4.29846540	    -13.28160513
      2.78333333	      0.55122527	     -8.81644466	     90.76613967	      0.23599108	      1.04608351	      0.34501961	     -5.03226085	     -2.10323606	     11.17016503	      9.70449175	      0.16937533	     26.51270257	    -10.86720001	      0.00000000	     -9.31478766	      1.35890142	      2.49074584	      0.75852520	      0.01323876	     31.08054550	     -0.33438214	      0.00000000	      0.25252864	     -0.01764608	     -2.14197224	      0.46897093	     -0.02346929	     -2.27584550	      0.41487930	     -0.04290468	     -2.27584550	      0.28861498	     -0.04290468	     -1.87422571	      0.23449809	     -0.03598389	     -1.74035244	      0.14429486	     -0.02733378	     -1.60647918	      1.80378681	     -0.19961598	    -11.91300700	      0.00000000	      0.00000000	     28.33715901	      0.21626277	     16.70614038	     13.14330340	    -14.48336948	     75.93864071	     48.23206085	     26.99658425	     14.78318644	     -2.31039620	     -2.07659852	    -16.91172182	     44.88309550	     48.73655809	     64.81586852	      5.26587409	    -12.66427914
      2.80000000	      0.65981709	     -8.76444917	     90.84451085	      0.23579679	      1.04601924	      0.34512892	     -5.08586226	     -1.96277414	     11.57917829	      9.71161604	      0.16949968	     26.11197552	    -11.62744686	      0.00000000	     -9.40439875	      1.23244830	      3.60748754	      0.76710156	      0.01338845	     30.63950436	     -1.57702093	      0.00000000	      0.25222939	     -0.00771162	     -2.00765557	      0.46841519	     -0.01025645	     -2.13313404	      0.41438766	     -0.01875003	     -2.13313404	      0.28827297	     -0.01875003	     -1.75669862	      0.23422021	     -0.01572554	     -1.63122015	      0.14412387	     -0.01194530	     -1.50574168	      1.80164928	     -0.08723539	    -11.16597797	      0.00000000	      0.00000000	     28.33212686	     -0.11615118	     16.23547851	     11.98841139	    -14.66816131	     73.34747349	     48.44531320	     28.62398013	     14.49088376	     -2.44399712	     -1.58531008	    -16.97327264	     45.07537043	     48.85008802	     64.94017875	      6.59171343	    -11.92604031
